# xmcd
#
# Track frame offsets: 
#        150
#        25850
#        44545
#        68487
#        89650
#        117432
#        144662
#        178472
#        197017
#        215050
#
# Disc length: 3104 seconds
#
# Revision: 2
# Processed by: cddbd v1.5.2PL0 Copyright (c) Steve Scherf et al.
# Submitted via: ExactAudioCopy v1.0b3
#
DISCID=9c0c1e0a
DTITLE=Stephanie Mills - Personal Inspirations
DYEAR=1994
DGENRE=R&B
TTITLE0=I Had A Talk With God
TTITLE1=Sweepin' Through The City
TTITLE2=He Cares
TTITLE3=In The Morning Time
TTITLE4=Everything You Touch
TTITLE5=Everybody Ought To Know
TTITLE6=Power Of God
TTITLE7=People Get Ready
TTITLE8=He Cares (Reprise)
TTITLE9=I'm Gonna Make You Proud
EXTD=1994 GospoCentric Inc  GCD2123
EXTT0=
EXTT1=
EXTT2=
EXTT3=
EXTT4=
EXTT5=
EXTT6=
EXTT7=
EXTT8=
EXTT9=
PLAYORDER=
